<svg width="24" height="24" viewBox="0 0 24 24" fill="none" xmlns="http://www.w3.org/2000/svg">
<path d="M17.3442 12.9067L13.8666 15.5556H9.19996V14.6667H12.994C13.0784 14.6666 13.1612 14.6448 13.2336 14.6035C13.306 14.5621 13.3653 14.5029 13.4051 14.432C13.445 14.3611 13.4639 14.2813 13.4599 14.201C13.4558 14.1207 13.429 14.0429 13.3822 13.976L12.5534 12.792C12.3834 12.5483 12.1527 12.3484 11.8819 12.2102C11.6111 12.072 11.3085 11.9998 11.0013 12H3.59996C3.35242 12 3.11503 12.0937 2.93999 12.2603C2.76496 12.427 2.66663 12.6531 2.66663 12.8889V18.2222C2.66663 18.6937 2.86329 19.1459 3.21336 19.4793C3.56343 19.8127 4.03822 20 4.53329 20H13.5297C13.9288 20.0001 14.3233 19.9189 14.6868 19.7619C15.0502 19.6049 15.3743 19.3758 15.6372 19.0898L21.3333 12.8889L19.9781 12.4587C19.5347 12.3179 19.0614 12.2852 18.6013 12.3634C18.1412 12.4417 17.709 12.6284 17.3442 12.9067ZM18.7741 7.90222C19.195 7.48889 19.4554 6.91733 19.4554 6.28622C19.4554 5.65511 19.195 5.08356 18.7741 4.67022C18.5612 4.45865 18.3057 4.29022 18.0227 4.17505C17.7398 4.05988 17.4354 4.00033 17.1277 4C17.1277 4 15.9666 3.99733 14.8 5.14311C13.6333 3.99733 12.4722 4 12.4722 4C12.1646 4.00037 11.8603 4.05984 11.5774 4.17485C11.2945 4.28986 11.0389 4.45804 10.8258 4.66933C10.4049 5.08356 10.1445 5.65422 10.1445 6.28533C10.1445 6.91644 10.4049 7.48889 10.8258 7.90133L14.8 12L18.7741 7.90222Z" fill="#0054A6"/>
</svg>
