<svg width="24" height="24" viewBox="0 0 24 24" fill="none" xmlns="http://www.w3.org/2000/svg">
<path fill-rule="evenodd" clip-rule="evenodd" d="M4.41536 8.65819C4 9.41702 4 10.3324 4 12.1631V13.38C4 16.5006 4 18.061 4.93726 19.0305C5.87452 20 7.38301 20 10.4 20H13.6C16.617 20 18.1255 20 19.0627 19.0305C20 18.061 20 16.5006 20 13.38V12.1631C20 10.3324 20 9.41702 19.5846 8.65819C19.1693 7.89937 18.4105 7.42841 16.8928 6.4865L15.2928 5.4935C13.6885 4.49783 12.8863 4 12 4C11.1137 4 10.3115 4.49783 8.70722 5.4935L7.10722 6.4865C5.58956 7.42841 4.83072 7.89937 4.41536 8.65819ZM9.6 16.2C9.26863 16.2 9 16.4686 9 16.8C9 17.1314 9.26863 17.4 9.6 17.4H14.4C14.7314 17.4 15 17.1314 15 16.8C15 16.4686 14.7314 16.2 14.4 16.2H9.6Z" fill="#939393"/>
</svg>
