<svg width="24" height="24" viewBox="0 0 24 24" fill="none" xmlns="http://www.w3.org/2000/svg">
<path d="M19.7039 15.185H19.479C19.4202 15.1853 19.3626 15.168 19.3137 15.1353C19.2648 15.1026 19.2268 15.056 19.2045 15.0016C19.1823 14.9471 19.1768 14.8873 19.1888 14.8297C19.2008 14.7721 19.2298 14.7194 19.2719 14.6784L19.4319 14.521C19.4874 14.4651 19.5184 14.3895 19.5184 14.3108C19.5184 14.2321 19.4874 14.1565 19.4319 14.1006L19.0142 13.6828C18.9582 13.6271 18.8825 13.5959 18.8035 13.5959C18.7245 13.5959 18.6488 13.6271 18.5928 13.6828L18.4417 13.8339C18.414 13.8642 18.3802 13.8883 18.3425 13.9047C18.3048 13.9211 18.2641 13.9294 18.2231 13.929C18.1446 13.9288 18.0695 13.8975 18.014 13.8421C17.9586 13.7866 17.9273 13.7115 17.9271 13.633V13.4082C17.9271 13.3296 17.8959 13.2542 17.8404 13.1985C17.7849 13.1429 17.7096 13.1115 17.6311 13.1113H17.0382C16.9597 13.1115 16.8846 13.1428 16.8291 13.1982C16.7737 13.2537 16.7424 13.3288 16.7422 13.4073V13.6322C16.7422 13.7109 16.7109 13.7864 16.6552 13.8421C16.5995 13.8978 16.524 13.929 16.4453 13.929C16.4046 13.9295 16.3643 13.9212 16.327 13.9048C16.2898 13.8884 16.2565 13.8642 16.2293 13.8339L16.0782 13.6828C16.0223 13.6274 15.9467 13.5963 15.868 13.5963C15.7892 13.5963 15.7137 13.6274 15.6577 13.6828L15.24 14.1006C15.1846 14.1565 15.1535 14.2321 15.1535 14.3108C15.1535 14.3895 15.1846 14.4651 15.24 14.521C15.296 14.577 15.3582 14.6304 15.4115 14.6899C15.4364 14.7164 15.4558 14.7475 15.4685 14.7816C15.4811 14.8156 15.4869 14.8518 15.4853 14.8881C15.4844 14.9661 15.4528 15.0406 15.3974 15.0955C15.342 15.1503 15.2673 15.1812 15.1893 15.1815H14.9653C14.8867 15.1817 14.8114 15.2131 14.756 15.2687C14.7005 15.3244 14.6693 15.3998 14.6693 15.4784V16.0712C14.6693 16.1498 14.7005 16.2252 14.756 16.2809C14.8114 16.3365 14.8867 16.3679 14.9653 16.3681H15.1902C15.2686 16.3684 15.3438 16.3996 15.3992 16.4551C15.4547 16.5105 15.486 16.5857 15.4862 16.6641C15.4881 16.7002 15.4828 16.7364 15.4706 16.7704C15.4584 16.8044 15.4395 16.8357 15.4151 16.8623C15.3617 16.9228 15.2995 16.9761 15.2426 17.0312C15.1869 17.0872 15.1557 17.1629 15.1557 17.2419C15.1557 17.3209 15.1869 17.3966 15.2426 17.4526L15.6604 17.8703C15.7163 17.9258 15.7919 17.9569 15.8706 17.9569C15.9494 17.9569 16.0249 17.9258 16.0809 17.8703L16.232 17.7192C16.2589 17.6894 16.2918 17.6655 16.3286 17.6491C16.3653 17.6327 16.4051 17.6242 16.4453 17.6241C16.5239 17.6241 16.5993 17.6553 16.6549 17.7108C16.7106 17.7662 16.7419 17.8415 16.7422 17.9201V18.145C16.7424 18.2234 16.7737 18.2986 16.8291 18.354C16.8846 18.4095 16.9597 18.4408 17.0382 18.441H17.6311C17.7095 18.4408 17.7846 18.4095 17.8401 18.354C17.8956 18.2986 17.9268 18.2234 17.9271 18.145V17.9201C17.9273 17.8415 17.9587 17.7662 18.0143 17.7108C18.07 17.6553 18.1454 17.6241 18.2239 17.6241C18.2648 17.6236 18.3053 17.6318 18.3427 17.6482C18.3801 17.6646 18.4136 17.6888 18.4408 17.7192L18.5919 17.8703C18.6479 17.9258 18.7234 17.9569 18.8022 17.9569C18.8809 17.9569 18.9565 17.9258 19.0124 17.8703L19.4302 17.4526C19.4856 17.3966 19.5167 17.3211 19.5167 17.2423C19.5167 17.1636 19.4856 17.0881 19.4302 17.0321L19.2728 16.8766C19.2307 16.8356 19.2018 16.783 19.1897 16.7255C19.1777 16.668 19.1831 16.6082 19.2052 16.5538C19.2274 16.4993 19.2653 16.4528 19.3141 16.42C19.3628 16.3873 19.4203 16.3698 19.479 16.3699H19.7039C19.743 16.3698 19.7817 16.362 19.8177 16.3469C19.8537 16.3318 19.8864 16.3098 19.9139 16.282C19.9414 16.2543 19.9632 16.2214 19.9779 16.1852C19.9927 16.149 20.0002 16.1103 19.9999 16.0712V15.4792C19.9999 15.4405 19.9923 15.4021 19.9773 15.3664C19.9624 15.3306 19.9406 15.2982 19.9131 15.2709C19.8856 15.2436 19.8529 15.2221 19.817 15.2075C19.7811 15.1929 19.7427 15.1847 19.7039 15.185ZM17.3333 16.6668C17.1575 16.6668 16.9856 16.6147 16.8395 16.517C16.6933 16.4193 16.5793 16.2805 16.5121 16.1181C16.4448 15.9556 16.4272 15.7769 16.4615 15.6045C16.4958 15.4321 16.5804 15.2737 16.7048 15.1494C16.8291 15.0251 16.9874 14.9404 17.1599 14.9061C17.3323 14.8718 17.511 14.8894 17.6734 14.9567C17.8359 15.024 17.9747 15.1379 18.0724 15.2841C18.17 15.4302 18.2222 15.6021 18.2222 15.7779C18.2222 16.0137 18.1285 16.2397 17.9618 16.4064C17.7951 16.5731 17.569 16.6668 17.3333 16.6668Z" fill="#939393"/>
<path d="M19.9999 8.66665V12.24C19.1477 11.5898 18.0886 11.2709 17.0191 11.3424C15.9497 11.414 14.9425 11.8711 14.1846 12.6291C13.4267 13.387 12.9695 14.3942 12.8979 15.4636C12.8264 16.5331 13.1453 17.5922 13.7955 18.4443H4.88888C4.65314 18.4443 4.42704 18.3507 4.26035 18.184C4.09365 18.0173 4 17.7912 4 17.5555V6.88889C4 6.65314 4.09365 6.42705 4.26035 6.26035C4.42704 6.09366 4.65314 6.00001 4.88888 6.00001H11.1199C11.3401 5.9991 11.5526 6.08075 11.7155 6.22885C11.8784 6.37695 11.9799 6.58074 11.9999 6.8V7.77777H19.111C19.3467 7.77777 19.5728 7.87142 19.7395 8.03812C19.9062 8.20481 19.9999 8.4309 19.9999 8.66665Z" fill="#939393"/>
</svg>
